<svg width="367" height="49" viewBox="0 0 367 49" fill="none" xmlns="http://www.w3.org/2000/svg">
<path d="M17.8438 31.0469C17.8438 31.625 17.7422 32.1641 17.5391 32.6641C17.3516 33.1641 17.0703 33.5938 16.6953 33.9531C16.2734 34.3594 15.7344 34.6797 15.0781 34.9141C14.4219 35.1328 13.6484 35.2422 12.7578 35.2422C12.0547 35.2422 11.3672 35.1484 10.6953 34.9609C10.0234 34.7734 9.42969 34.4531 8.91406 34C8.38281 33.5625 7.95312 32.9688 7.625 32.2188C7.29688 31.4531 7.13281 30.5078 7.13281 29.3828H0.59375C0.59375 31.2578 0.882812 32.8672 1.46094 34.2109C2.03906 35.5391 2.8125 36.6406 3.78125 37.5156C4.73438 38.3906 5.83594 39.0625 7.08594 39.5312C8.33594 39.9844 9.625 40.2734 10.9531 40.3984V44.9922H14.6797V40.3984C16.1484 40.2578 17.4766 39.9531 18.6641 39.4844C19.8516 39 20.8672 38.3594 21.7109 37.5625C22.5547 36.7656 23.2031 35.8203 23.6562 34.7266C24.1094 33.6172 24.3359 32.375 24.3359 31C24.3359 29.5 24.0859 28.2031 23.5859 27.1094C23.1016 26 22.4062 25.0234 21.5 24.1797C20.5781 23.3516 19.4766 22.625 18.1953 22C16.9141 21.3594 15.4844 20.7422 13.9062 20.1484C12.8594 19.7734 11.9844 19.4062 11.2812 19.0469C10.5781 18.6719 10.0156 18.2812 9.59375 17.875C9.15625 17.4688 8.84375 17.0312 8.65625 16.5625C8.48438 16.0781 8.39844 15.5312 8.39844 14.9219C8.39844 14.3125 8.48438 13.75 8.65625 13.2344C8.84375 12.7188 9.125 12.2656 9.5 11.875C9.875 11.5 10.3516 11.2109 10.9297 11.0078C11.5234 10.7891 12.2188 10.6797 13.0156 10.6797C13.7031 10.6797 14.3281 10.7891 14.8906 11.0078C15.4688 11.2266 15.9609 11.5469 16.3672 11.9688C16.8203 12.4531 17.1719 13.0703 17.4219 13.8203C17.6719 14.5703 17.7969 15.4453 17.7969 16.4453H24.3125C24.3125 14.8828 24.0938 13.4766 23.6562 12.2266C23.2344 10.9609 22.6328 9.85938 21.8516 8.92188C21.0547 8 20.0938 7.25 18.9688 6.67188C17.8438 6.09375 16.5781 5.71094 15.1719 5.52344V0.4375H11.4219V5.47656C9.98438 5.61719 8.67969 5.9375 7.50781 6.4375C6.33594 6.9375 5.33594 7.59375 4.50781 8.40625C3.67969 9.21875 3.03906 10.1797 2.58594 11.2891C2.13281 12.3828 1.90625 13.5938 1.90625 14.9219C1.90625 16.4375 2.15625 17.75 2.65625 18.8594C3.15625 19.9531 3.86719 20.9141 4.78906 21.7422C5.69531 22.5703 6.79688 23.2969 8.09375 23.9219C9.39062 24.5469 10.8281 25.1406 12.4062 25.7031C13.3906 26.0469 14.2266 26.3984 14.9141 26.7578C15.6172 27.1016 16.1875 27.4844 16.625 27.9062C17.0469 28.3281 17.3516 28.7969 17.5391 29.3125C17.7422 29.8125 17.8438 30.3906 17.8438 31.0469ZM48.4766 48.4375L49.2734 44.7344C48.4922 44.7656 47.8516 44.5625 47.3516 44.125C46.8672 43.7031 46.4844 43.1406 46.2031 42.4375C45.9219 41.7344 45.7266 40.9453 45.6172 40.0703C45.5234 39.2109 45.4766 38.3594 45.4766 37.5156V33.6953C45.4766 31.8359 45.0234 30.1953 44.1172 28.7734C43.2109 27.3516 41.7891 26.2656 39.8516 25.5156C41.7734 24.7656 43.1875 23.6719 44.0938 22.2344C45.0156 20.7969 45.4766 19.1484 45.4766 17.2891V13.4688C45.4766 12.625 45.4922 11.7734 45.5234 10.9141C45.5703 10.0391 45.7109 9.25 45.9453 8.54688C46.1797 7.84375 46.5547 7.28125 47.0703 6.85938C47.5859 6.42188 48.3203 6.21875 49.2734 6.25L48.4766 2.57031C46.9609 2.57031 45.6562 2.85937 44.5625 3.4375C43.4688 4.01563 42.5859 4.75781 41.9141 5.66406C41.1016 6.71094 40.5078 7.94531 40.1328 9.36719C39.7578 10.7734 39.5703 12.1406 39.5703 13.4688V17.2891C39.5703 19.3984 39.0859 20.9062 38.1172 21.8125C37.1484 22.7188 35.6719 23.1719 33.6875 23.1719V27.8594C35.6719 27.8594 37.1484 28.3125 38.1172 29.2188C39.0859 30.125 39.5703 31.6172 39.5703 33.6953V37.5156C39.5703 38.75 39.7344 40.0078 40.0625 41.2891C40.4062 42.5859 40.9531 43.7734 41.7031 44.8516C42.4062 45.8828 43.3203 46.7344 44.4453 47.4062C45.5859 48.0938 46.9297 48.4375 48.4766 48.4375ZM351.336 44.7344L352.133 48.4375C353.68 48.4375 355.016 48.1016 356.141 47.4297C357.281 46.7734 358.203 45.9062 358.906 44.8281C359.609 43.7969 360.141 42.625 360.5 41.3125C360.859 40 361.039 38.7344 361.039 37.5156V33.6953C361.039 32.9609 361.094 32.3047 361.203 31.7266C361.328 31.1328 361.508 30.6172 361.742 30.1797C362.18 29.3672 362.828 28.7812 363.688 28.4219C364.547 28.0469 365.625 27.8594 366.922 27.8594V23.1719C365.766 23.1719 364.773 23.0234 363.945 22.7266C363.133 22.4297 362.5 21.9609 362.047 21.3203C361.703 20.8516 361.445 20.2812 361.273 19.6094C361.117 18.9375 361.039 18.1641 361.039 17.2891V13.4688C361.039 12.2812 360.891 11.0547 360.594 9.78906C360.312 8.50781 359.828 7.35156 359.141 6.32031C358.422 5.17969 357.492 4.27344 356.352 3.60156C355.211 2.91406 353.805 2.57031 352.133 2.57031L351.336 6.25C352.289 6.21875 353.023 6.42188 353.539 6.85938C354.055 7.28125 354.43 7.84375 354.664 8.54688C354.898 9.25 355.031 10.0391 355.062 10.9141C355.109 11.7734 355.133 12.625 355.133 13.4688V17.2891C355.133 18.3672 355.281 19.3906 355.578 20.3594C355.875 21.3125 356.336 22.1797 356.961 22.9609C357.383 23.4922 357.883 23.9766 358.461 24.4141C359.039 24.8516 359.703 25.2266 360.453 25.5391C359.531 25.9297 358.734 26.4062 358.062 26.9688C357.406 27.5156 356.859 28.1406 356.422 28.8438C355.984 29.5469 355.656 30.3047 355.438 31.1172C355.234 31.9297 355.133 32.7891 355.133 33.6953V37.5156C355.133 38.3594 355.078 39.2109 354.969 40.0703C354.859 40.9453 354.664 41.7344 354.383 42.4375C354.102 43.1406 353.711 43.7031 353.211 44.125C352.727 44.5625 352.102 44.7656 351.336 44.7344Z" fill="#FF637A"/>
<path d="M81.8047 36.0156L81.7812 22.5625H69.5703V27.4844H75.2188L75.1953 33.6719C75.0234 33.875 74.7656 34.0703 74.4219 34.2578C74.0938 34.4297 73.7109 34.5859 73.2734 34.7266C72.8359 34.8672 72.3672 34.9766 71.8672 35.0547C71.3672 35.1328 70.8594 35.1719 70.3438 35.1719C69.5 35.1562 68.7422 35.0234 68.0703 34.7734C67.4141 34.5078 66.8359 34.125 66.3359 33.625C66.0391 33.3281 65.7656 32.9922 65.5156 32.6172C65.2812 32.2266 65.0703 31.8047 64.8828 31.3516C64.5859 30.5703 64.3516 29.6719 64.1797 28.6562C64.0234 27.6406 63.9453 26.5156 63.9453 25.2812V20.5938C63.9453 19.6094 64 18.6953 64.1094 17.8516C64.2344 17.0078 64.4062 16.2422 64.625 15.5547C64.9062 14.6641 65.2578 13.8906 65.6797 13.2344C66.1172 12.5781 66.6016 12.0469 67.1328 11.6406C67.5391 11.3438 67.9766 11.1172 68.4453 10.9609C68.9141 10.8047 69.3984 10.7266 69.8984 10.7266C70.8203 10.7266 71.6094 10.8516 72.2656 11.1016C72.9375 11.3359 73.4922 11.6953 73.9297 12.1797C74.3203 12.6172 74.625 13.1562 74.8438 13.7969C75.0781 14.4375 75.25 15.1719 75.3594 16H81.7812C81.6094 14.3594 81.2422 12.8828 80.6797 11.5703C80.1328 10.2578 79.3672 9.14062 78.3828 8.21875C77.3984 7.3125 76.1875 6.61719 74.75 6.13281C73.3281 5.64844 71.6562 5.40625 69.7344 5.40625C68.4844 5.40625 67.2969 5.57812 66.1719 5.92188C65.0469 6.26562 64.0078 6.77344 63.0547 7.44531C62.2422 8.03906 61.4922 8.74219 60.8047 9.55469C60.1328 10.3672 59.5391 11.2812 59.0234 12.2969C58.4766 13.4375 58.0547 14.7109 57.7578 16.1172C57.4609 17.5078 57.3125 19.0156 57.3125 20.6406V25.2812C57.3125 26.9844 57.4609 28.5625 57.7578 30.0156C58.0703 31.4688 58.5234 32.7734 59.1172 33.9297C59.6328 34.9766 60.2578 35.9062 60.9922 36.7188C61.7422 37.5312 62.5703 38.2188 63.4766 38.7812C64.3984 39.3281 65.4062 39.7422 66.5 40.0234C67.6094 40.3203 68.7891 40.4688 70.0391 40.4688C71.4766 40.4688 72.8203 40.3359 74.0703 40.0703C75.3203 39.8047 76.4531 39.4531 77.4688 39.0156C78.4688 38.5938 79.3359 38.1172 80.0703 37.5859C80.8047 37.0547 81.3828 36.5312 81.8047 36.0156ZM89.1406 14.6406V19.9609H96.3594V34.7031H89.1406V40H109.812V34.7031H102.945V14.6406H89.1406ZM95.8906 8.14844C95.8906 8.64844 95.9766 9.11719 96.1484 9.55469C96.3359 9.97656 96.5938 10.3359 96.9219 10.6328C97.25 10.9453 97.6406 11.1875 98.0938 11.3594C98.5625 11.5312 99.0781 11.6172 99.6406 11.6172C100.797 11.6172 101.711 11.2969 102.383 10.6562C103.07 10 103.414 9.16406 103.414 8.14844C103.414 7.13281 103.07 6.30469 102.383 5.66406C101.711 5.00781 100.797 4.67969 99.6406 4.67969C99.0781 4.67969 98.5625 4.76563 98.0938 4.9375C97.6406 5.10937 97.25 5.34375 96.9219 5.64062C96.5938 5.95312 96.3359 6.32812 96.1484 6.76562C95.9766 7.1875 95.8906 7.64844 95.8906 8.14844ZM134.445 14.1719C132.742 14.1719 131.172 14.5859 129.734 15.4141C128.297 16.2266 127.062 17.3516 126.031 18.7891L125.984 18.2266L125.727 14.6406H119.656V40H126.172V24.7656C126.469 24.0469 126.844 23.4219 127.297 22.8906C127.75 22.3594 128.297 21.9219 128.938 21.5781C129.469 21.2812 130.07 21.0625 130.742 20.9219C131.43 20.7656 132.195 20.6875 133.039 20.6875C133.852 20.6875 134.703 20.7422 135.594 20.8516C136.5 20.9453 137.383 21.0938 138.242 21.2969L139.203 14.8047C138.688 14.6484 138.008 14.5078 137.164 14.3828C136.336 14.2422 135.43 14.1719 134.445 14.1719ZM146.422 4V9.32031H154.016V34.7031H146.422V40H167.867V34.7031H160.602V4H146.422ZM190.25 33.0391C190.25 33.4297 190.148 33.7891 189.945 34.1172C189.758 34.4453 189.469 34.7344 189.078 34.9844C188.672 35.2344 188.148 35.4375 187.508 35.5938C186.883 35.7344 186.148 35.8047 185.305 35.8047C184.602 35.8047 183.914 35.7344 183.242 35.5938C182.586 35.4531 182 35.2266 181.484 34.9141C180.969 34.6172 180.547 34.2266 180.219 33.7422C179.891 33.2422 179.703 32.6484 179.656 31.9609H173.445C173.445 32.9922 173.695 34.0234 174.195 35.0547C174.711 36.0703 175.461 36.9766 176.445 37.7734C177.43 38.5859 178.648 39.2422 180.102 39.7422C181.57 40.2422 183.258 40.4922 185.164 40.4922C186.898 40.4922 188.469 40.3047 189.875 39.9297C191.281 39.5391 192.484 39 193.484 38.3125C194.469 37.625 195.227 36.8125 195.758 35.875C196.305 34.9219 196.578 33.8828 196.578 32.7578C196.578 31.5391 196.305 30.4922 195.758 29.6172C195.227 28.7266 194.484 27.9688 193.531 27.3438C192.578 26.7344 191.445 26.2344 190.133 25.8438C188.82 25.4531 187.398 25.1328 185.867 24.8828C184.805 24.7266 183.93 24.5469 183.242 24.3438C182.555 24.125 182.016 23.8828 181.625 23.6172C181.219 23.3672 180.938 23.0859 180.781 22.7734C180.625 22.4453 180.547 22.0938 180.547 21.7188C180.547 21.3438 180.633 20.9922 180.805 20.6641C180.992 20.3203 181.258 20.0234 181.602 19.7734C181.977 19.4922 182.461 19.2734 183.055 19.1172C183.648 18.9609 184.344 18.8828 185.141 18.8828C186.078 18.8828 186.875 19 187.531 19.2344C188.203 19.4688 188.734 19.7812 189.125 20.1719C189.406 20.4688 189.617 20.8047 189.758 21.1797C189.898 21.5391 189.969 21.9297 189.969 22.3516H196.484C196.484 21.1797 196.227 20.0938 195.711 19.0938C195.195 18.0938 194.453 17.2266 193.484 16.4922C192.5 15.7734 191.305 15.2109 189.898 14.8047C188.492 14.3828 186.906 14.1719 185.141 14.1719C183.453 14.1719 181.938 14.3828 180.594 14.8047C179.25 15.2266 178.109 15.7969 177.172 16.5156C176.234 17.2344 175.516 18.0703 175.016 19.0234C174.516 19.9766 174.266 20.9766 174.266 22.0234C174.266 23.1016 174.508 24.0547 174.992 24.8828C175.492 25.7109 176.18 26.4375 177.055 27.0625C177.93 27.7031 178.977 28.25 180.195 28.7031C181.43 29.1406 182.789 29.5078 184.273 29.8047C185.445 30.0234 186.414 30.2422 187.18 30.4609C187.945 30.6797 188.562 30.9141 189.031 31.1641C189.484 31.4297 189.797 31.7109 189.969 32.0078C190.156 32.3047 190.25 32.6484 190.25 33.0391ZM255.008 29.3125H248.422C248.359 30.3438 248.188 31.2266 247.906 31.9609C247.625 32.6953 247.242 33.2969 246.758 33.7656C246.273 34.2344 245.688 34.5781 245 34.7969C244.312 35.0156 243.539 35.125 242.68 35.125C242.039 35.125 241.453 35.0547 240.922 34.9141C240.406 34.7578 239.938 34.5234 239.516 34.2109C239.125 33.9297 238.773 33.5781 238.461 33.1562C238.164 32.7344 237.906 32.25 237.688 31.7031C237.375 30.9062 237.141 29.9766 236.984 28.9141C236.844 27.8359 236.773 26.6172 236.773 25.2578V20.6172C236.773 19.6172 236.82 18.6875 236.914 17.8281C237.008 16.9531 237.156 16.1562 237.359 15.4375C237.625 14.5156 237.977 13.7109 238.414 13.0234C238.867 12.3203 239.414 11.7812 240.055 11.4062C240.43 11.1875 240.836 11.0234 241.273 10.9141C241.727 10.8047 242.211 10.75 242.727 10.75C243.695 10.75 244.523 10.8828 245.211 11.1484C245.914 11.3984 246.5 11.7734 246.969 12.2734C247.422 12.7891 247.766 13.4297 248 14.1953C248.25 14.9609 248.406 15.8516 248.469 16.8672H255.031C254.875 15.0859 254.5 13.4844 253.906 12.0625C253.312 10.6406 252.5 9.4375 251.469 8.45312C250.438 7.46875 249.188 6.71094 247.719 6.17969C246.266 5.64844 244.602 5.38281 242.727 5.38281C241.461 5.38281 240.273 5.54688 239.164 5.875C238.07 6.1875 237.062 6.64062 236.141 7.23438C235.109 7.9375 234.188 8.79688 233.375 9.8125C232.562 10.8281 231.906 11.9844 231.406 13.2812C230.969 14.3438 230.641 15.5 230.422 16.75C230.203 17.9844 230.094 19.2891 230.094 20.6641V25.2578C230.094 26.7266 230.211 28.1172 230.445 29.4297C230.695 30.7422 231.047 31.9453 231.5 33.0391C231.969 34.1328 232.539 35.1328 233.211 36.0391C233.898 36.9453 234.68 37.7188 235.555 38.3594C236.508 39.0469 237.578 39.5781 238.766 39.9531C239.969 40.3125 241.273 40.4922 242.68 40.4922C244.461 40.4922 246.086 40.2344 247.555 39.7188C249.023 39.1875 250.289 38.4375 251.352 37.4688C252.414 36.5 253.258 35.3281 253.883 33.9531C254.523 32.5781 254.898 31.0312 255.008 29.3125ZM259.484 27.0859V27.5781C259.484 29.4375 259.75 31.1562 260.281 32.7344C260.812 34.2969 261.594 35.6562 262.625 36.8125C263.641 37.9688 264.891 38.875 266.375 39.5312C267.875 40.1719 269.578 40.4922 271.484 40.4922C273.375 40.4922 275.062 40.1719 276.547 39.5312C278.031 38.875 279.281 37.9688 280.297 36.8125C281.312 35.6562 282.086 34.2969 282.617 32.7344C283.148 31.1562 283.414 29.4375 283.414 27.5781V27.0859C283.414 25.2422 283.148 23.5391 282.617 21.9766C282.086 20.3984 281.312 19.0312 280.297 17.875C279.266 16.7188 278.008 15.8125 276.523 15.1562C275.039 14.5 273.344 14.1719 271.438 14.1719C269.531 14.1719 267.836 14.5 266.352 15.1562C264.883 15.8125 263.641 16.7188 262.625 17.875C261.594 19.0312 260.812 20.3984 260.281 21.9766C259.75 23.5391 259.484 25.2422 259.484 27.0859ZM266 27.5781V27.0859C266 26.0547 266.102 25.0781 266.305 24.1562C266.508 23.2344 266.828 22.4219 267.266 21.7188C267.703 21.0156 268.266 20.4609 268.953 20.0547C269.641 19.6484 270.469 19.4453 271.438 19.4453C272.422 19.4453 273.258 19.6484 273.945 20.0547C274.633 20.4609 275.195 21.0156 275.633 21.7188C276.055 22.4219 276.367 23.2344 276.57 24.1562C276.773 25.0781 276.875 26.0547 276.875 27.0859V27.5781C276.875 28.6406 276.773 29.6406 276.57 30.5781C276.367 31.5 276.055 32.3047 275.633 32.9922C275.195 33.6953 274.633 34.25 273.945 34.6562C273.258 35.0625 272.438 35.2656 271.484 35.2656C270.5 35.2656 269.656 35.0625 268.953 34.6562C268.266 34.25 267.703 33.6953 267.266 32.9922C266.828 32.3047 266.508 31.5 266.305 30.5781C266.102 29.6406 266 28.6406 266 27.5781ZM288.523 27.1328V27.625C288.523 29.4688 288.75 31.1797 289.203 32.7578C289.656 34.3203 290.312 35.6719 291.172 36.8125C292.016 37.9531 293.047 38.8516 294.266 39.5078C295.5 40.1484 296.891 40.4688 298.438 40.4688C299.859 40.4688 301.109 40.1953 302.188 39.6484C303.266 39.1016 304.203 38.3359 305 37.3516L305.328 40H311.211V4H304.672V16.9141C303.891 16.0391 302.992 15.3672 301.977 14.8984C300.977 14.4141 299.812 14.1719 298.484 14.1719C296.906 14.1719 295.5 14.4844 294.266 15.1094C293.047 15.7344 292.008 16.6172 291.148 17.7578C290.289 18.8984 289.633 20.2656 289.18 21.8594C288.742 23.4531 288.523 25.2109 288.523 27.1328ZM295.039 27.625V27.1328C295.039 26.0703 295.133 25.0781 295.32 24.1562C295.508 23.2188 295.805 22.3984 296.211 21.6953C296.617 21.0078 297.141 20.4688 297.781 20.0781C298.438 19.6719 299.227 19.4688 300.148 19.4688C301.258 19.4688 302.18 19.7109 302.914 20.1953C303.648 20.6641 304.234 21.3281 304.672 22.1875V32.4531C304.234 33.2969 303.641 33.9609 302.891 34.4453C302.156 34.9297 301.227 35.1719 300.102 35.1719C299.18 35.1719 298.398 34.9766 297.758 34.5859C297.117 34.1953 296.594 33.6562 296.188 32.9688C295.781 32.2969 295.484 31.5078 295.297 30.6016C295.125 29.6797 295.039 28.6875 295.039 27.625ZM330.336 40.4688C332.789 40.4688 334.914 39.9922 336.711 39.0391C338.508 38.0859 339.82 37.0234 340.648 35.8516L337.391 32.3359C336.641 33.3047 335.664 34.0312 334.461 34.5156C333.258 35 332.016 35.2422 330.734 35.2422C329.828 35.2422 328.992 35.1016 328.227 34.8203C327.461 34.5391 326.781 34.1406 326.188 33.625C325.609 33.125 325.148 32.5703 324.805 31.9609C324.461 31.3359 324.18 30.5156 323.961 29.5V29.4297H341.164V26.6641C341.164 24.8047 340.906 23.1094 340.391 21.5781C339.875 20.0312 339.125 18.7109 338.141 17.6172C337.141 16.5234 335.922 15.6797 334.484 15.0859C333.062 14.4766 331.438 14.1719 329.609 14.1719C327.844 14.1719 326.211 14.4922 324.711 15.1328C323.211 15.7734 321.914 16.6719 320.82 17.8281C319.727 18.9844 318.875 20.3672 318.266 21.9766C317.656 23.5703 317.352 25.3359 317.352 27.2734V28.2109C317.352 29.9141 317.656 31.5156 318.266 33.0156C318.891 34.5 319.773 35.7891 320.914 36.8828C322.055 37.9922 323.422 38.8672 325.016 39.5078C326.609 40.1484 328.383 40.4688 330.336 40.4688ZM329.562 19.4453C330.391 19.4453 331.117 19.5781 331.742 19.8438C332.383 20.0938 332.922 20.4375 333.359 20.875C333.797 21.3281 334.141 21.8594 334.391 22.4688C334.641 23.0781 334.766 23.7266 334.766 24.4141V24.9297H324.078C324.234 24.1016 324.469 23.3516 324.781 22.6797C325.094 22.0078 325.484 21.4297 325.953 20.9453C326.406 20.4609 326.938 20.0938 327.547 19.8438C328.156 19.5781 328.828 19.4453 329.562 19.4453Z" fill="black"/>
</svg>
