<svg width="408" height="335" viewBox="0 0 408 335" fill="none" xmlns="http://www.w3.org/2000/svg">
<g clip-path="url(#clip0)">
<path d="M235.119 16.3045C238.618 24.4052 231.202 26.6997 222.708 31.0416C214.213 35.3834 207.856 40.1285 204.356 32.0278C200.857 23.9271 198.017 7.84876 210.034 1.70644C222.466 -4.64748 231.619 8.20385 235.119 16.3045Z" fill="#373737"/>
<path d="M217.787 32.2354C224.103 32.2354 229.223 26.6664 229.223 19.7966C229.223 12.9268 224.103 7.35779 217.787 7.35779C211.471 7.35779 206.351 12.9268 206.351 19.7966C206.351 26.6664 211.471 32.2354 217.787 32.2354Z" fill="#FFB8B8"/>
<path d="M274.442 74.9601C274.046 74.398 273.651 73.8459 273.25 73.3091C272.733 72.6102 272.213 71.9333 271.69 71.2783C265.763 63.8386 259.459 59.154 252.517 58.6526H252.507L252.405 58.6425L238.572 73.3091L233.869 78.2925L233.971 78.566L236.509 85.4385H280.97C278.967 81.8221 276.788 78.3244 274.442 74.9601Z" fill="#373737"/>
<path d="M205.351 24.8043L209.445 22.712L208.875 16.2885L211.612 21.6043L213.569 20.6042L213.236 16.8573L214.833 19.9581L229.371 12.5272C228.006 9.36654 225.542 6.92531 222.522 5.74058C219.501 4.55585 216.172 4.72467 213.266 6.2099L211.159 7.28684C208.253 8.77208 206.009 11.4521 204.92 14.7372C203.831 18.0224 203.986 21.6436 205.351 24.8043Z" fill="#373737"/>
<path d="M300.097 250.589H61.315C59.2782 250.587 57.3254 249.706 55.8852 248.139C54.4449 246.572 53.6347 244.448 53.6324 242.233V86.1698C53.6341 84.5467 54.2276 82.9907 55.2827 81.8429C56.3379 80.6952 57.7685 80.0496 59.2607 80.0477H302.054C303.572 80.0496 305.027 80.7064 306.101 81.8739C307.174 83.0415 307.778 84.6245 307.78 86.2757V242.233C307.777 244.448 306.967 246.572 305.527 248.139C304.087 249.706 302.134 250.587 300.097 250.589Z" fill="#F2F2F2"/>
<path d="M68.7646 242.233H292.647C294.623 242.233 296.518 241.379 297.915 239.86C299.312 238.34 300.097 236.279 300.097 234.13V101.67C300.097 99.5211 299.312 97.46 297.915 95.9404C296.518 94.4207 294.623 93.567 292.647 93.567H68.7646C66.7888 93.567 64.894 94.4207 63.4969 95.9404C62.0998 97.46 61.3149 99.5211 61.3149 101.67V234.13C61.3149 236.279 62.0998 238.34 63.4969 239.86C64.894 241.379 66.7888 242.233 68.7646 242.233Z" fill="white"/>
<path d="M307.673 85.6918H53.5245V81.4375C53.5275 79.2146 54.341 77.0838 55.7865 75.5125C57.232 73.9412 59.1914 73.0577 61.235 73.0559H299.962C302.006 73.0577 303.965 73.9412 305.411 75.5125C306.856 77.0838 307.67 79.2146 307.673 81.4375V85.6918Z" fill="#373737"/>
<path d="M67.5372 81.5559C68.6387 81.5559 69.5316 80.5847 69.5316 79.3866C69.5316 78.1885 68.6387 77.2173 67.5372 77.2173C66.4358 77.2173 65.5428 78.1885 65.5428 79.3866C65.5428 80.5847 66.4358 81.5559 67.5372 81.5559Z" fill="white"/>
<path d="M75.1075 81.5559C76.209 81.5559 77.1019 80.5847 77.1019 79.3866C77.1019 78.1885 76.209 77.2173 75.1075 77.2173C74.006 77.2173 73.1131 78.1885 73.1131 79.3866C73.1131 80.5847 74.006 81.5559 75.1075 81.5559Z" fill="white"/>
<path d="M82.6777 81.5559C83.7792 81.5559 84.6721 80.5847 84.6721 79.3866C84.6721 78.1885 83.7792 77.2173 82.6777 77.2173C81.5763 77.2173 80.6833 78.1885 80.6833 79.3866C80.6833 80.5847 81.5763 81.5559 82.6777 81.5559Z" fill="white"/>
<path d="M187.692 213.507H167.671C166.498 213.505 165.374 212.998 164.544 212.096C163.715 211.194 163.249 209.971 163.247 208.696V186.918C163.249 185.643 163.715 184.42 164.544 183.518C165.374 182.616 166.498 182.109 167.671 182.107H187.692C188.864 182.109 189.989 182.616 190.818 183.518C191.647 184.42 192.114 185.643 192.115 186.918V208.696C192.114 209.971 191.647 211.194 190.818 212.096C189.989 212.998 188.864 213.505 187.692 213.507ZM167.671 183.12C166.745 183.121 165.857 183.522 165.202 184.234C164.548 184.946 164.179 185.911 164.178 186.918V208.696C164.18 209.703 164.548 210.668 165.202 211.38C165.857 212.092 166.745 212.493 167.671 212.494H187.692C188.618 212.493 189.505 212.092 190.16 211.38C190.814 210.668 191.183 209.703 191.184 208.696V186.918C191.183 185.911 190.814 184.946 190.16 184.234C189.505 183.522 188.618 183.121 187.692 183.12H167.671Z" fill="#CCCCCC"/>
<path d="M183.734 207.43H171.628C171.258 207.429 170.903 207.269 170.641 206.984C170.379 206.699 170.232 206.313 170.231 205.91V189.704C170.232 189.301 170.379 188.915 170.641 188.63C170.903 188.345 171.258 188.185 171.628 188.185H180.4C180.718 188.185 181.027 188.303 181.275 188.52L184.609 191.434C184.772 191.576 184.904 191.756 184.994 191.961C185.085 192.166 185.131 192.391 185.131 192.618V205.91C185.13 206.313 184.983 206.699 184.721 206.984C184.459 207.269 184.104 207.429 183.734 207.43ZM171.628 189.198C171.505 189.198 171.386 189.251 171.299 189.346C171.212 189.441 171.163 189.57 171.163 189.704V205.91C171.163 206.045 171.212 206.173 171.299 206.268C171.386 206.363 171.505 206.417 171.628 206.417H183.734C183.857 206.417 183.976 206.363 184.063 206.268C184.15 206.173 184.199 206.045 184.2 205.91V192.618C184.2 192.542 184.184 192.467 184.154 192.399C184.124 192.331 184.08 192.271 184.026 192.223L180.691 189.309C180.609 189.237 180.506 189.198 180.4 189.198H171.628Z" fill="#CCCCCC"/>
<path d="M181.406 195.275H173.956C173.833 195.275 173.714 195.221 173.627 195.127C173.54 195.032 173.491 194.903 173.491 194.768C173.491 194.634 173.54 194.505 173.627 194.41C173.714 194.315 173.833 194.262 173.956 194.262H181.406C181.529 194.262 181.648 194.315 181.735 194.41C181.823 194.505 181.872 194.634 181.872 194.768C181.872 194.903 181.823 195.032 181.735 195.127C181.648 195.221 181.529 195.275 181.406 195.275Z" fill="#CCCCCC"/>
<path d="M181.406 198.314H173.956C173.833 198.314 173.714 198.26 173.627 198.165C173.54 198.07 173.491 197.941 173.491 197.807C173.491 197.673 173.54 197.544 173.627 197.449C173.714 197.354 173.833 197.301 173.956 197.301H181.406C181.529 197.301 181.648 197.354 181.735 197.449C181.823 197.544 181.872 197.673 181.872 197.807C181.872 197.941 181.823 198.07 181.735 198.165C181.648 198.26 181.529 198.314 181.406 198.314Z" fill="#CCCCCC"/>
<path d="M181.406 201.352H173.956C173.833 201.352 173.714 201.299 173.627 201.204C173.54 201.109 173.491 200.98 173.491 200.846C173.491 200.711 173.54 200.583 173.627 200.488C173.714 200.393 173.833 200.339 173.956 200.339H181.406C181.529 200.339 181.648 200.393 181.735 200.488C181.823 200.583 181.872 200.711 181.872 200.846C181.872 200.98 181.823 201.109 181.735 201.204C181.648 201.299 181.529 201.352 181.406 201.352Z" fill="#CCCCCC"/>
<path d="M235.184 213.507H215.163C213.99 213.505 212.866 212.998 212.036 212.096C211.207 211.194 210.741 209.971 210.739 208.696V186.918C210.741 185.643 211.207 184.42 212.036 183.518C212.866 182.616 213.99 182.109 215.163 182.107H235.184C236.357 182.109 237.481 182.616 238.31 183.518C239.139 184.42 239.606 185.643 239.607 186.918V208.696C239.606 209.971 239.139 211.194 238.31 212.096C237.481 212.998 236.357 213.505 235.184 213.507ZM215.163 183.12C214.237 183.121 213.349 183.522 212.695 184.234C212.04 184.946 211.672 185.911 211.671 186.918V208.696C211.672 209.703 212.04 210.668 212.695 211.38C213.349 212.092 214.237 212.493 215.163 212.494H235.184C236.11 212.493 236.997 212.092 237.652 211.38C238.307 210.668 238.675 209.703 238.676 208.696V186.918C238.675 185.911 238.307 184.946 237.652 184.234C236.997 183.522 236.11 183.121 235.184 183.12H215.163Z" fill="#CCCCCC"/>
<path d="M231.692 203.378H218.655C218.284 203.378 217.929 203.217 217.667 202.933C217.406 202.648 217.258 202.261 217.258 201.859V193.756C217.258 193.353 217.406 192.967 217.667 192.682C217.929 192.397 218.284 192.237 218.655 192.236H231.692C232.062 192.237 232.417 192.397 232.679 192.682C232.941 192.967 233.088 193.353 233.089 193.756V201.859C233.088 202.261 232.941 202.648 232.679 202.933C232.417 203.217 232.062 203.378 231.692 203.378ZM218.655 193.249C218.531 193.249 218.413 193.303 218.326 193.398C218.238 193.493 218.189 193.621 218.189 193.756V201.859C218.189 201.993 218.238 202.122 218.326 202.217C218.413 202.312 218.531 202.365 218.655 202.365H231.692C231.815 202.365 231.934 202.312 232.021 202.217C232.108 202.122 232.157 201.993 232.157 201.859V193.756C232.157 193.621 232.108 193.493 232.021 193.398C231.934 193.303 231.815 193.249 231.692 193.249H218.655Z" fill="#CCCCCC"/>
<path d="M225.173 199.143C224.912 199.144 224.655 199.064 224.433 198.914L217.477 194.185C217.372 194.114 217.298 194 217.27 193.869C217.243 193.739 217.264 193.601 217.33 193.488C217.395 193.374 217.499 193.293 217.619 193.263C217.739 193.232 217.866 193.255 217.971 193.326L224.927 198.055C225.001 198.105 225.086 198.131 225.174 198.131C225.261 198.131 225.346 198.105 225.42 198.055L232.376 193.326C232.481 193.255 232.607 193.232 232.727 193.263C232.847 193.293 232.952 193.374 233.017 193.488C233.082 193.601 233.104 193.739 233.076 193.869C233.049 194 232.974 194.114 232.87 194.185L225.914 198.914C225.692 199.064 225.435 199.144 225.173 199.143Z" fill="#CCCCCC"/>
<path d="M140.2 213.507H120.178C119.006 213.505 117.881 212.998 117.052 212.096C116.223 211.194 115.757 209.971 115.755 208.696V186.918C115.757 185.643 116.223 184.42 117.052 183.518C117.881 182.616 119.006 182.109 120.178 182.107H140.2C141.372 182.109 142.497 182.616 143.326 183.518C144.155 184.42 144.622 185.643 144.623 186.918V208.696C144.622 209.971 144.155 211.194 143.326 212.096C142.497 212.998 141.372 213.505 140.2 213.507ZM120.178 183.12C119.253 183.121 118.365 183.522 117.71 184.234C117.056 184.946 116.687 185.911 116.686 186.918V208.696C116.687 209.703 117.056 210.668 117.71 211.38C118.365 212.092 119.253 212.493 120.178 212.494H140.2C141.126 212.493 142.013 212.092 142.668 211.38C143.323 210.668 143.691 209.703 143.692 208.696V186.918C143.691 185.911 143.323 184.946 142.668 184.234C142.013 183.522 141.126 183.121 140.2 183.12H120.178Z" fill="#CCCCCC"/>
<path d="M136.708 203.378H123.671C123.3 203.378 122.945 203.217 122.683 202.933C122.421 202.648 122.274 202.261 122.274 201.859V193.756C122.274 193.353 122.421 192.967 122.683 192.682C122.945 192.397 123.3 192.237 123.671 192.236H136.708C137.078 192.237 137.433 192.397 137.695 192.682C137.957 192.967 138.104 193.353 138.104 193.756V201.859C138.104 202.261 137.957 202.648 137.695 202.933C137.433 203.217 137.078 203.378 136.708 203.378ZM123.671 193.249C123.547 193.249 123.429 193.303 123.341 193.398C123.254 193.493 123.205 193.621 123.205 193.756V201.859C123.205 201.993 123.254 202.122 123.341 202.217C123.429 202.312 123.547 202.365 123.671 202.365H136.708C136.831 202.365 136.949 202.312 137.037 202.217C137.124 202.122 137.173 201.993 137.173 201.859V193.756C137.173 193.621 137.124 193.493 137.037 193.398C136.949 193.303 136.831 193.249 136.708 193.249H123.671Z" fill="#CCCCCC"/>
<path d="M134.641 203.378H125.271C125.108 203.378 124.947 203.331 124.806 203.242C124.664 203.153 124.547 203.026 124.465 202.872C124.383 202.718 124.34 202.543 124.34 202.365C124.34 202.187 124.383 202.013 124.465 201.859L127.287 196.541C127.369 196.387 127.487 196.259 127.628 196.17C127.77 196.081 127.93 196.034 128.094 196.034C128.257 196.034 128.418 196.081 128.559 196.17C128.701 196.259 128.819 196.387 128.9 196.541L130.723 199.975L131.779 197.986C131.861 197.832 131.979 197.704 132.12 197.615C132.262 197.526 132.422 197.479 132.586 197.479C132.749 197.479 132.91 197.526 133.051 197.615C133.193 197.704 133.311 197.832 133.392 197.986L135.448 201.859C135.53 202.013 135.573 202.187 135.573 202.365C135.573 202.543 135.53 202.718 135.448 202.872C135.366 203.026 135.249 203.153 135.107 203.242C134.965 203.331 134.805 203.378 134.641 203.378H134.641ZM134.641 202.365L132.586 198.492L131.127 201.241C131.086 201.318 131.027 201.382 130.956 201.427C130.885 201.471 130.805 201.495 130.723 201.495C130.642 201.495 130.561 201.471 130.49 201.427C130.42 201.382 130.361 201.318 130.32 201.241L128.094 197.047L125.271 202.365H134.641Z" fill="#CCCCCC"/>
<path d="M135.311 196.288C135.825 196.288 136.242 195.834 136.242 195.275C136.242 194.715 135.825 194.262 135.311 194.262C134.796 194.262 134.379 194.715 134.379 195.275C134.379 195.834 134.796 196.288 135.311 196.288Z" fill="#CCCCCC"/>
<path d="M357.972 328.253L352.263 328.252L349.548 304.303L357.973 304.304L357.972 328.253Z" fill="#A0616A"/>
<path d="M359.428 334.271L341.022 334.271V334.017C341.022 332.994 341.207 331.981 341.567 331.035C341.927 330.09 342.455 329.231 343.12 328.507C343.786 327.784 344.575 327.21 345.444 326.818C346.314 326.427 347.245 326.225 348.186 326.225H348.187L359.428 326.226L359.428 334.271Z" fill="#373737"/>
<path d="M381.252 328.253L375.544 328.252L372.828 304.303L381.253 304.304L381.252 328.253Z" fill="#A0616A"/>
<path d="M382.708 334.271L364.302 334.271V334.017C364.302 332.994 364.488 331.981 364.848 331.035C365.208 330.09 365.735 329.231 366.401 328.507C367.066 327.784 367.856 327.21 368.725 326.818C369.594 326.427 370.526 326.225 371.466 326.225H371.467L382.708 326.226L382.708 334.271Z" fill="#373737"/>
<path d="M379.541 317.871L374.254 316.121C373.86 315.991 373.51 315.738 373.248 315.393C372.986 315.047 372.823 314.626 372.78 314.18L367.851 263.37C367.848 263.309 367.822 263.251 367.781 263.209C367.74 263.167 367.685 263.144 367.629 263.144C367.572 263.138 367.515 263.156 367.471 263.195C367.427 263.234 367.398 263.29 367.391 263.351L359.135 312.577C359.085 312.876 358.981 313.161 358.828 313.415C358.675 313.669 358.477 313.887 358.246 314.057C358.014 314.227 357.754 314.345 357.48 314.404C357.207 314.463 356.925 314.461 356.651 314.4L349.895 312.886C349.399 312.774 348.958 312.47 348.651 312.032C348.345 311.593 348.194 311.049 348.227 310.5L353.249 229.817L387.302 225.82L382.242 315.829C382.209 316.408 381.975 316.951 381.587 317.349C381.2 317.746 380.687 317.969 380.154 317.97C379.946 317.97 379.74 317.936 379.541 317.871Z" fill="#373737"/>
<path d="M379.509 159.555C385.825 159.555 390.945 153.986 390.945 147.116C390.945 140.246 385.825 134.677 379.509 134.677C373.193 134.677 368.073 140.246 368.073 147.116C368.073 153.986 373.193 159.555 379.509 159.555Z" fill="#A0616A"/>
<path d="M353.196 230.291L360.58 179.722C360.973 177.033 361.887 174.466 363.263 172.192C364.639 169.917 366.444 167.988 368.558 166.531C370.673 165.075 373.048 164.125 375.527 163.745C378.005 163.364 380.529 163.563 382.932 164.326C387.132 165.647 390.729 168.625 393.019 172.676C395.31 176.728 396.129 181.562 395.318 186.236L387.593 231.397L353.196 230.291Z" fill="#F2F2F2"/>
<path d="M382.666 239.339C383.237 238.929 383.719 238.387 384.077 237.753C384.435 237.118 384.66 236.406 384.738 235.666C384.815 234.926 384.743 234.177 384.525 233.471C384.308 232.765 383.951 232.12 383.479 231.58L391.113 215.5L382.516 216.498L376.585 231.615C375.804 232.537 375.361 233.738 375.34 234.992C375.319 236.245 375.721 237.463 376.471 238.415C377.221 239.367 378.265 239.987 379.407 240.157C380.549 240.328 381.708 240.036 382.666 239.339V239.339Z" fill="#A0616A"/>
<path d="M384.301 228.744C383.878 228.679 383.484 228.476 383.171 228.161L380.25 225.225C379.934 224.907 379.716 224.49 379.625 224.033C379.535 223.575 379.575 223.098 379.742 222.666L385.579 207.615L384.751 177.877C384.87 176.921 385.161 176 385.608 175.166C386.054 174.333 386.647 173.603 387.353 173.019C388.059 172.435 388.864 172.008 389.722 171.762C390.579 171.517 391.473 171.457 392.352 171.588C393.231 171.718 394.077 172.036 394.843 172.522C395.609 173.009 396.279 173.654 396.816 174.423C397.352 175.191 397.744 176.067 397.969 177C398.194 177.933 398.247 178.906 398.127 179.861L399.542 198.555C399.973 204.229 398.494 209.88 395.381 214.456L386.277 227.843C386.102 228.1 385.879 228.314 385.623 228.472C385.367 228.629 385.083 228.726 384.79 228.756C384.627 228.773 384.463 228.769 384.301 228.744Z" fill="#F2F2F2"/>
<path d="M313.653 140.339C313.778 141.071 314.049 141.764 314.446 142.37C314.844 142.976 315.359 143.48 315.955 143.846C316.551 144.212 317.213 144.432 317.896 144.489C318.578 144.547 319.264 144.441 319.905 144.179L330.542 158.095L333.049 149.094L322.564 137.259C322.088 136.118 321.243 135.206 320.19 134.696C319.137 134.186 317.949 134.115 316.851 134.494C315.753 134.874 314.82 135.678 314.231 136.756C313.642 137.833 313.436 139.108 313.653 140.339Z" fill="#A0616A"/>
<path d="M321.986 146.107C322.205 145.709 322.531 145.394 322.92 145.203L326.544 143.422C326.937 143.23 327.374 143.174 327.797 143.261C328.22 143.349 328.608 143.575 328.909 143.91L339.375 155.626L364.875 166.391C365.638 166.883 366.304 167.533 366.836 168.306C367.368 169.078 367.755 169.957 367.974 170.891C368.193 171.826 368.241 172.799 368.115 173.754C367.988 174.709 367.69 175.627 367.237 176.457C366.784 177.286 366.185 178.011 365.474 178.588C364.763 179.166 363.955 179.585 363.095 179.823C362.236 180.06 361.341 180.111 360.464 179.972C359.586 179.834 358.742 179.508 357.98 179.014L341.601 173.144C336.63 171.363 332.422 167.679 329.762 162.776L321.978 148.438C321.829 148.163 321.734 147.856 321.701 147.538C321.667 147.22 321.696 146.897 321.785 146.592C321.834 146.422 321.901 146.26 321.986 146.107Z" fill="#F2F2F2"/>
<path opacity="0.1" d="M388.785 190.247L388.319 206.454L379.741 222.665L386.903 204.599L388.785 190.247Z" fill="black"/>
<path d="M309.832 156.478H168.287C166.25 156.475 164.297 155.594 162.857 154.028C161.417 152.461 160.606 150.337 160.604 148.122V115.203C160.606 112.987 161.417 110.863 162.857 109.296C164.297 107.73 166.25 106.849 168.287 106.846H309.832C311.869 106.849 313.821 107.73 315.262 109.297C316.702 110.863 317.512 112.987 317.514 115.203V148.122C317.512 150.337 316.702 152.461 315.262 154.028C313.821 155.594 311.869 156.475 309.832 156.478Z" fill="white"/>
<path d="M309.832 156.731H168.287C166.188 156.729 164.176 155.821 162.692 154.207C161.208 152.593 160.374 150.404 160.371 148.122V115.203C160.374 112.92 161.208 110.732 162.692 109.118C164.176 107.504 166.188 106.596 168.287 106.593H309.832C311.93 106.596 313.942 107.504 315.426 109.118C316.91 110.732 317.745 112.92 317.747 115.203V148.122C317.745 150.404 316.91 152.593 315.426 154.207C313.942 155.821 311.93 156.729 309.832 156.731ZM168.287 107.606C166.435 107.608 164.66 108.409 163.35 109.834C162.041 111.258 161.304 113.189 161.302 115.203V148.122C161.304 150.136 162.041 152.067 163.35 153.491C164.66 154.915 166.435 155.716 168.287 155.718H309.832C311.683 155.716 313.459 154.915 314.768 153.491C316.077 152.067 316.814 150.136 316.816 148.122V115.203C316.814 113.189 316.077 111.258 314.768 109.834C313.459 108.409 311.683 107.608 309.832 107.606H168.287Z" fill="#3F3D56"/>
<path d="M292.604 148.375H185.514C183.477 148.372 181.524 147.491 180.084 145.925C178.644 144.358 177.834 142.234 177.831 140.018V122.799C177.834 120.584 178.644 118.46 180.084 116.893C181.524 115.327 183.477 114.445 185.514 114.443H292.604C294.641 114.445 296.594 115.327 298.034 116.893C299.474 118.46 300.284 120.584 300.287 122.799V140.018C300.284 142.234 299.474 144.358 298.034 145.925C296.594 147.491 294.641 148.372 292.604 148.375Z" fill="#F2F2F2"/>
<path d="M208.559 139.094C213.633 139.094 217.747 134.62 217.747 129.1C217.747 123.581 213.633 119.107 208.559 119.107C203.485 119.107 199.372 123.581 199.372 129.1C199.372 134.62 203.485 139.094 208.559 139.094Z" fill="#FF6584"/>
<path d="M285.949 147.366L272.981 135.536L260.236 123.91C259.9 123.603 259.475 123.435 259.036 123.436C258.597 123.437 258.172 123.607 257.837 123.915L245.134 135.594L242.031 138.447L237.353 134.179L223.134 121.209C222.798 120.902 222.373 120.734 221.934 120.735C221.495 120.736 221.07 120.906 220.735 121.214L206.563 134.244L192.168 147.479C192.095 147.546 192.043 147.636 192.018 147.736C191.994 147.837 191.998 147.943 192.031 148.04C192.064 148.138 192.124 148.222 192.202 148.281C192.28 148.341 192.374 148.372 192.469 148.372L221.983 148.31L231.325 148.291L231.233 148.375L259.08 148.316L285.651 148.261C285.747 148.261 285.84 148.229 285.918 148.169C285.996 148.109 286.055 148.025 286.088 147.927C286.12 147.829 286.125 147.723 286.1 147.623C286.075 147.523 286.022 147.433 285.949 147.366Z" fill="#3F3D56"/>
<path d="M407.534 335H318.137C318.014 335 317.896 334.947 317.808 334.852C317.721 334.757 317.672 334.628 317.672 334.494C317.672 334.359 317.721 334.23 317.808 334.136C317.896 334.041 318.014 333.987 318.137 333.987H407.534C407.658 333.987 407.776 334.041 407.864 334.136C407.951 334.23 408 334.359 408 334.494C408 334.628 407.951 334.757 407.864 334.852C407.776 334.947 407.658 335 407.534 335Z" fill="#CCCCCC"/>
<path d="M281.254 66.8063C280.882 66.149 280.391 65.581 279.811 65.1369C279.23 64.6928 278.573 64.382 277.878 64.2234C277.624 64.1652 277.365 64.1297 277.106 64.117L241.631 29.618C240.934 28.8389 240.004 28.3559 239.009 28.2556C238.813 28.2311 238.615 28.2243 238.418 28.2354C237.599 28.2758 236.809 28.5748 236.145 29.0958C235.48 29.6167 234.969 30.3371 234.675 31.1688C234.38 32.0005 234.315 32.9074 234.487 33.7788C234.659 34.6501 235.061 35.4481 235.643 36.0751L249.225 48.9541L271.527 70.0982C271.546 70.4964 271.6 70.8917 271.69 71.2782C271.957 72.3979 272.531 73.4029 273.335 74.1599C274.139 74.917 275.136 75.3903 276.193 75.5171C277.157 75.6396 278.133 75.4641 279.01 75.0107C279.705 74.6571 280.321 74.144 280.816 73.5065C280.868 73.4407 280.914 73.3799 280.961 73.309C281.612 72.3862 281.989 71.2693 282.041 70.1075C282.094 68.9456 281.819 67.794 281.254 66.8063H281.254Z" fill="#FFB8B8"/>
<path d="M220.576 100.054L220.245 85.4385L219.966 73.3091L219.775 64.8211L219.398 48.2755C219.323 47.3896 219.013 46.5465 218.505 45.8492C217.997 45.1518 217.314 44.6303 216.538 44.3484C215.763 44.0664 214.928 44.0362 214.137 44.2614C213.346 44.4866 212.632 44.9575 212.083 45.6166C211.954 45.7672 211.837 45.9299 211.734 46.1028C211.161 46.9958 210.903 48.0837 211.007 49.1668L211.836 73.3091L212.251 85.4385L212.781 100.91C212.628 101.138 212.49 101.376 212.367 101.624C212.036 102.307 211.836 103.056 211.779 103.826C211.722 104.596 211.81 105.37 212.037 106.101C212.273 106.869 212.656 107.573 213.161 108.167C213.666 108.762 214.281 109.233 214.965 109.55C215.65 109.868 216.388 110.024 217.132 110.008C217.876 109.992 218.609 109.805 219.281 109.459C220.063 109.057 220.741 108.452 221.256 107.698C221.771 106.943 222.108 106.062 222.236 105.133C222.364 104.203 222.279 103.253 221.99 102.368C221.7 101.482 221.215 100.688 220.576 100.054H220.576Z" fill="#FFB8B8"/>
<path d="M252.517 58.6526L249.225 48.9542L243.898 33.2442C243.514 32.1012 242.898 31.0669 242.096 30.2183C241.294 29.3696 240.326 28.7282 239.265 28.3418C239.181 28.3114 239.093 28.281 239.009 28.2557C237.981 27.9164 236.898 27.823 235.834 27.9822C234.77 28.1413 233.75 28.549 232.845 29.1774L214.905 41.555C213.262 42.6859 212.087 44.4673 211.629 46.5227C211.171 48.5781 211.466 50.7466 212.451 52.5702C214.694 56.7897 217.139 60.879 219.775 64.8211C221.866 67.9155 225.758 68.2446 226.433 73.3091H239.661L253.052 60.2327L252.517 58.6526Z" fill="#CCCCCC"/>
<path d="M47.1033 177.182C53.0618 177.182 57.8922 171.928 57.8922 165.447C57.8922 158.966 53.0618 153.712 47.1033 153.712C41.1447 153.712 36.3143 158.966 36.3143 165.447C36.3143 171.928 41.1447 177.182 47.1033 177.182Z" fill="#A0616A"/>
<path d="M73.5903 157.369C73.6966 157.461 73.7996 157.559 73.8994 157.662C74.3951 158.17 74.7864 158.786 75.0479 159.469C75.3094 160.153 75.4351 160.889 75.4168 161.63C75.3984 162.37 75.2365 163.098 74.9415 163.766C74.6466 164.433 74.2253 165.025 73.7052 165.503C73.584 165.614 73.4575 165.718 73.3263 165.814L74.0565 192.628C74.0773 193.505 73.8373 194.367 73.3722 195.085C72.9071 195.803 72.2417 196.338 71.4747 196.612L71.4302 196.622L51.4143 198.941C50.8701 199.004 50.3198 198.949 49.7953 198.779C49.2707 198.61 48.7823 198.329 48.3581 197.952C47.934 197.576 47.5825 197.113 47.3241 196.588C47.0656 196.063 46.9053 195.488 46.8523 194.896C46.7994 194.303 46.8548 193.705 47.0155 193.136C47.1762 192.567 47.439 192.038 47.7886 191.58C48.1382 191.123 48.5677 190.744 49.0524 190.468C49.5371 190.192 50.0673 190.022 50.6124 189.97L64.8807 188.603L67.3482 165.382C67.1868 165.227 67.0356 165.059 66.8958 164.881C66.1222 163.885 65.7164 162.612 65.7573 161.309C65.7982 160.006 66.2829 158.766 67.1173 157.829C67.9516 156.893 69.0761 156.328 70.2722 156.243C71.4684 156.157 72.651 156.559 73.5903 157.369H73.5903Z" fill="#A0616A"/>
<path d="M64.8723 328.771H70.258L72.8197 306.177H64.8713L64.8723 328.771Z" fill="#A0616A"/>
<path d="M63.4988 326.859L74.1045 326.858H74.1049C74.9925 326.858 75.8714 327.049 76.6914 327.418C77.5115 327.787 78.2565 328.329 78.8842 329.012C79.5118 329.694 80.0096 330.505 80.3493 331.397C80.689 332.289 80.8638 333.245 80.8638 334.21V334.449L63.4992 334.45L63.4988 326.859Z" fill="#373737"/>
<path d="M11.345 320.672L15.9722 323.669L28.8011 305.681L21.9716 301.259L11.345 320.672Z" fill="#A0616A"/>
<path d="M11.0644 318.265L20.1771 324.166L20.1774 324.167C20.9401 324.661 21.6058 325.313 22.1366 326.087C22.6674 326.861 23.0529 327.74 23.2711 328.676C23.4892 329.612 23.5358 330.585 23.4081 331.541C23.2804 332.496 22.9809 333.415 22.5268 334.244L22.4145 334.45L7.49426 324.787L11.0644 318.265Z" fill="#373737"/>
<path d="M71.5287 320.791H65.4982C65.0099 320.792 64.5387 320.596 64.1756 320.241C63.8126 319.886 63.5835 319.397 63.5327 318.868L57.4531 256.708C57.4378 256.552 57.3755 256.405 57.276 256.291C57.1764 256.177 57.0451 256.102 56.9023 256.077C56.7594 256.052 56.613 256.079 56.4856 256.153C56.3582 256.228 56.2569 256.346 56.1973 256.489L45.2297 282.905L25.8121 317.344C25.5608 317.786 25.1717 318.114 24.7161 318.269C24.2604 318.424 23.7687 318.395 23.331 318.188L15.5738 314.476C15.3173 314.353 15.0878 314.172 14.9004 313.946C14.713 313.719 14.572 313.452 14.4868 313.161C14.4016 312.871 14.3742 312.564 14.4063 312.261C14.4383 311.958 14.5292 311.666 14.6729 311.405L32.523 278.895L37.9975 251.504C36.2757 239.625 43.657 221.965 43.7318 221.787L43.7684 221.701L64.1004 213.057L64.2024 213.193C72.2207 241.814 77.1067 272.615 73.499 318.821C73.4545 319.357 73.228 319.856 72.8637 320.22C72.4994 320.584 72.0235 320.788 71.5287 320.791Z" fill="#373737"/>
<path d="M42.9493 224.595L42.8546 224.379C42.8093 224.275 38.2883 213.904 34.8032 202.819C34.1335 200.675 33.8803 198.403 34.0597 196.148C34.2391 193.892 34.8472 191.702 35.8455 189.715C36.8568 187.708 38.2404 185.951 39.9085 184.556C41.5766 183.161 43.4929 182.158 45.5361 181.61C49.0831 180.685 52.8175 181.177 56.0589 182.996C59.3003 184.816 61.833 187.841 63.1956 191.521C65.96 199.04 65.079 207.066 64.2499 213.378L64.2334 213.504L64.1276 213.559L42.9493 224.595Z" fill="#3F3D56"/>
<path d="M60.1843 158.818H43.0528V150.695C46.813 149.07 50.4925 147.688 52.7167 150.695C54.6973 150.695 56.5967 151.551 57.9971 153.074C59.3976 154.598 60.1843 156.664 60.1843 158.818V158.818Z" fill="#373737"/>
<path d="M42.1044 149.262C31.8628 149.262 28.9962 163.225 28.9962 171.103C28.9962 175.496 30.8228 177.067 33.6931 177.599L34.7067 171.718L37.0809 177.852C37.8871 177.856 38.7342 177.839 39.6123 177.821L40.4172 176.019L42.2123 177.789C49.4017 177.801 55.2124 178.941 55.2124 171.103C55.2124 163.225 52.6984 149.262 42.1044 149.262Z" fill="#373737"/>
<path d="M89.8625 335H0.465609C0.342122 335 0.223692 334.947 0.136373 334.852C0.0490547 334.757 0 334.628 0 334.494C0 334.359 0.0490547 334.23 0.136373 334.136C0.223692 334.041 0.342122 333.987 0.465609 333.987H89.8625C89.986 333.987 90.1045 334.041 90.1918 334.136C90.2791 334.23 90.3281 334.359 90.3281 334.494C90.3281 334.628 90.2791 334.757 90.1918 334.852C90.1045 334.947 89.986 335 89.8625 335Z" fill="#737373"/>
<path d="M91.5433 168.379H71.5222C70.3494 168.378 69.2251 167.871 68.3959 166.969C67.5667 166.067 67.1002 164.844 67.0989 163.568V141.791C67.1002 140.515 67.5667 139.292 68.3959 138.391C69.2251 137.489 70.3494 136.981 71.5222 136.98H91.5433C92.716 136.981 93.8404 137.489 94.6696 138.391C95.4988 139.292 95.9653 140.515 95.9666 141.791V163.568C95.9653 164.844 95.4988 166.067 94.6696 166.969C93.8404 167.871 92.716 168.378 91.5433 168.379Z" fill="white"/>
<path d="M91.5433 168.379H71.5222C70.3494 168.378 69.2251 167.871 68.3959 166.969C67.5667 166.067 67.1002 164.844 67.0989 163.568V141.791C67.1002 140.515 67.5667 139.292 68.3959 138.391C69.2251 137.489 70.3494 136.981 71.5222 136.98H91.5433C92.716 136.981 93.8404 137.489 94.6696 138.391C95.4988 139.292 95.9653 140.515 95.9666 141.791V163.568C95.9653 164.844 95.4988 166.067 94.6696 166.969C93.8404 167.871 92.716 168.378 91.5433 168.379ZM71.5222 137.993C70.5963 137.994 69.7087 138.394 69.054 139.106C68.3994 139.818 68.0311 140.784 68.0301 141.791V163.568C68.0311 164.575 68.3994 165.541 69.054 166.253C69.7087 166.965 70.5963 167.365 71.5222 167.366H91.5433C92.4692 167.365 93.3568 166.965 94.0115 166.253C94.6661 165.541 95.0344 164.575 95.0354 163.568V141.791C95.0344 140.784 94.6661 139.818 94.0115 139.106C93.3568 138.394 92.4692 137.994 91.5433 137.993H71.5222Z" fill="#3F3D56"/>
<path d="M88.0513 159.517H75.0143C74.6439 159.516 74.2889 159.356 74.027 159.071C73.7651 158.786 73.6178 158.4 73.6174 157.997V147.362C73.6178 146.959 73.7651 146.573 74.027 146.288C74.2889 146.003 74.6439 145.843 75.0143 145.843H78.6843C78.9231 145.842 79.158 145.908 79.3664 146.034C79.5748 146.161 79.7496 146.344 79.8741 146.565L80.8976 148.375H88.0513C88.4217 148.375 88.7767 148.535 89.0386 148.82C89.3004 149.105 89.4477 149.491 89.4481 149.894V157.997C89.4477 158.4 89.3004 158.786 89.0386 159.071C88.7767 159.356 88.4217 159.516 88.0513 159.517Z" fill="#FF637A"/>
<path d="M87.6274 164.89C87.6926 165.019 87.7527 165.153 87.8079 165.29C88.0835 165.967 88.2245 166.7 88.2215 167.441C88.2186 168.181 88.0718 168.913 87.7907 169.587C87.5097 170.262 87.1008 170.864 86.5908 171.355C86.0808 171.846 85.4813 172.214 84.8314 172.435C84.6802 172.486 84.5266 172.528 84.3714 172.561L75.4785 197.582C75.1845 198.4 74.656 199.093 73.9713 199.558C73.2866 200.023 72.4822 200.236 71.6776 200.165L71.6329 200.155L52.3583 193.844C51.8343 193.672 51.3467 193.389 50.9237 193.012C50.5007 192.634 50.1507 192.169 49.8939 191.643C49.6371 191.117 49.4786 190.542 49.4276 189.949C49.3766 189.356 49.434 188.758 49.5965 188.19C49.7591 187.622 50.0236 187.094 50.3747 186.637C50.7258 186.181 51.1567 185.804 51.6423 185.53C52.1279 185.255 52.6587 185.088 53.2041 185.038C53.7494 184.988 54.2985 185.056 54.8195 185.238L68.4574 190L79.0157 169.64C78.9224 169.429 78.8428 169.211 78.7777 168.987C78.42 167.743 78.5002 166.398 79.0029 165.215C79.5055 164.031 80.3946 163.093 81.4975 162.582C82.6004 162.071 83.8385 162.025 84.9712 162.451C86.104 162.877 87.0507 163.747 87.6274 164.89H87.6274Z" fill="#A0616A"/>
<path d="M375.712 140.941C375.013 141.656 374.223 142.227 373.374 142.632C372.948 142.831 372.492 142.913 372.037 142.873C371.583 142.833 371.141 142.672 370.742 142.4C370.306 142.016 369.961 141.494 369.745 140.891C369.529 140.287 369.449 139.624 369.514 138.969C369.66 137.66 370.089 136.422 370.757 135.385C371.909 133.421 373.424 131.818 375.178 130.709C376.933 129.599 378.876 129.014 380.85 129C382.824 128.987 384.773 129.546 386.537 130.632C388.301 131.718 389.83 133.3 391 135.248C391.853 136.553 392.378 138.134 392.51 139.798C392.632 142.721 391 145.45 391.175 148.369C391.322 150.838 392.768 152.953 394.481 154.266C396.193 155.579 398.172 156.244 400.087 157.033C402.002 157.821 403.938 158.794 405.355 160.558C406.772 162.322 407.554 165.059 406.776 167.344C406.137 169.221 404.618 170.415 403.095 171.224C399.011 173.367 394.424 173.578 390.22 171.816C388.671 171.158 386.978 169.84 386.955 167.83C386.945 166.958 387.265 166.139 387.457 165.298C387.65 164.458 387.686 163.456 387.203 162.815C386.605 162.019 385.499 162.203 384.784 162.837C384.069 163.472 383.604 164.434 383.014 165.239C381.893 166.768 380.195 167.744 378.535 167.456C376.875 167.168 375.375 165.435 375.307 163.382C375.189 159.856 378.794 157.648 379.185 154.151C379.447 151.816 378.207 149.679 377.132 147.724C376.057 145.77 375.057 143.32 375.809 141.151" fill="#373737"/>
</g>
<defs>
<clipPath id="clip0">
<rect width="408" height="335" fill="white"/>
</clipPath>
</defs>
</svg>
