<svg width="418" height="300" viewBox="0 0 418 300" fill="none" xmlns="http://www.w3.org/2000/svg">
<g clip-path="url(#clip0)">
<path d="M12.0925 110.386H124.415C125.373 110.384 126.291 109.929 126.969 109.12C127.646 108.31 128.027 107.212 128.028 106.067V25.4189C128.028 24.5801 127.748 23.776 127.252 23.1829C126.756 22.5898 126.083 22.2562 125.381 22.2552H11.172C10.4579 22.2562 9.77335 22.5956 9.26842 23.1989C8.7635 23.8023 8.47949 24.6203 8.4787 25.4736V106.067C8.47978 107.212 8.86089 108.31 9.53838 109.12C10.2159 109.929 11.1344 110.384 12.0925 110.386Z" fill="#F2F2F2"/>
<path d="M121.119 105.935H15.3884C14.4553 105.935 13.5604 105.495 12.9006 104.713C12.2409 103.93 11.8702 102.869 11.8702 101.762V33.5497C11.8702 32.443 12.2409 31.3816 12.9006 30.599C13.5604 29.8165 14.4553 29.3768 15.3884 29.3768H121.119C122.052 29.3768 122.947 29.8165 123.606 30.599C124.266 31.3816 124.637 32.443 124.637 33.5497V101.762C124.637 102.869 124.266 103.93 123.606 104.713C122.947 105.495 122.052 105.935 121.119 105.935Z" fill="white"/>
<path d="M8.4787 24.9258H128.028V22.8277C128.027 21.7315 127.644 20.6807 126.964 19.9058C126.284 19.1309 125.363 18.6952 124.401 18.6943H12.1057C11.1444 18.6952 10.2226 19.1309 9.54267 19.9058C8.86272 20.6807 8.48008 21.7315 8.4787 22.8277V24.9258Z" fill="#302F38"/>
<path d="M102.275 238.902C103.42 230.353 103.722 221.691 103.177 213.069L102.275 198.799C107.244 209.763 106.121 224.194 102.275 238.902V238.902Z" fill="#CACACA"/>
<path d="M98.4011 241.289C98.952 236.188 99.0972 231.042 98.8349 225.912L98.4011 217.418C100.792 223.945 100.251 232.534 98.4011 241.289Z" fill="#CACACA"/>
<path d="M81.1806 251.794V256.568C81.1824 256.947 81.319 257.31 81.5608 257.578C81.8026 257.846 82.1301 257.998 82.472 258H84.6243C84.6809 258 84.737 258.012 84.7893 258.036C84.8416 258.06 84.8891 258.095 84.9291 258.139C84.9692 258.184 85.0009 258.236 85.0224 258.294C85.044 258.352 85.055 258.415 85.0548 258.477V297.626C85.0565 298.005 85.1932 298.368 85.435 298.636C85.6768 298.904 86.0042 299.056 86.3462 299.058H112.604C112.947 299.058 113.275 298.907 113.517 298.638C113.759 298.369 113.895 298.005 113.896 297.626V258.477C113.896 258.351 113.941 258.23 114.022 258.14C114.103 258.051 114.212 258 114.326 258H116.909C117.251 258 117.58 257.849 117.822 257.58C118.064 257.312 118.2 256.947 118.2 256.568V251.794C118.201 251.605 118.167 251.419 118.102 251.245C118.038 251.071 117.943 250.913 117.823 250.78C117.703 250.647 117.56 250.542 117.403 250.47C117.247 250.398 117.079 250.361 116.909 250.361H82.472C82.1298 250.362 81.802 250.514 81.56 250.782C81.318 251.05 81.1817 251.414 81.1806 251.794Z" fill="#F2F2F2"/>
<path d="M85.016 259.003H113.857V260.435H85.016V259.003Z" fill="#E6E6E6"/>
<path d="M85.0547 280.078C94.7056 284.507 104.462 284.556 114.326 280.078V269.988C104.83 266.45 94.5512 266.45 85.0547 269.988V280.078Z" fill="#E6E6E6"/>
<path d="M223.655 119.536C215.002 119.536 207.988 111.757 207.988 102.16C207.988 92.5638 215.002 84.7843 223.655 84.7843C232.308 84.7843 239.322 92.5638 239.322 102.16C239.322 111.757 232.308 119.536 223.655 119.536Z" fill="#302F38"/>
<path d="M219.29 85.2627C216.579 85.2631 213.914 86.0438 211.556 87.5285C209.198 89.0132 207.228 91.151 205.838 93.7331C204.448 96.3151 203.686 99.2529 203.627 102.259C203.567 105.266 204.212 108.238 205.498 110.885C204.14 109 203.151 106.822 202.593 104.49C202.036 102.158 201.923 99.7221 202.261 97.3386C202.599 94.955 203.381 92.6758 204.558 90.6461C205.734 88.6164 207.279 86.8807 209.093 85.5497C210.908 84.2186 212.953 83.3215 215.097 82.9153C217.242 82.5091 219.439 82.6029 221.549 83.1906C223.659 83.7784 225.636 84.8471 227.353 86.3289C229.07 87.8106 230.489 89.6728 231.522 91.7968C230.057 89.7576 228.197 88.111 226.079 86.9797C223.961 85.8484 221.641 85.2615 219.29 85.2627Z" fill="#2F2E41"/>
<path d="M252.931 102.125C227.514 102.125 206.909 79.2725 206.909 51.0828C206.909 22.8932 227.514 0.0410156 252.931 0.0410156C278.348 0.0410156 298.953 22.8932 298.953 51.0828C298.953 79.2725 278.348 102.125 252.931 102.125Z" fill="#302F38"/>
<path d="M289.05 19.4126C281.12 9.52154 270.036 3.43437 258.136 2.43585C246.236 1.43732 234.452 5.60556 225.27 14.0608C225.647 13.6641 226.019 13.2641 226.41 12.8785C235.533 3.89129 247.501 -0.709711 259.682 0.08718C271.863 0.884071 283.26 7.01361 291.367 17.1281C299.475 27.2425 303.628 40.5139 302.915 54.0241C302.202 67.5343 296.68 80.1773 287.564 89.1732C287.173 89.5588 286.771 89.9221 286.372 90.2901C295.018 81.1676 300.131 68.6761 300.631 55.452C301.131 42.2279 296.978 29.3057 289.05 19.4126Z" fill="#373737"/>
<path d="M253.321 101.691C236.951 101.691 223.68 86.9723 223.68 68.8162C223.68 50.6602 236.951 35.9418 253.321 35.9418C269.691 35.9418 282.962 50.6602 282.962 68.8162C282.962 86.9723 269.691 101.691 253.321 101.691Z" fill="#FFB8B8"/>
<path d="M238.179 110.615L269.899 112.197C269.899 112.197 267.252 130.39 284.412 132.121C301.573 133.851 317.174 128.66 323.414 141.637C329.654 154.614 326.964 200.82 326.964 200.82C326.964 200.82 315.264 247.537 305.904 254.458C296.543 261.378 214.64 251.862 214.64 251.862L180.363 203.861L181.524 166.842C182.131 147.511 198.044 132.997 215.184 136.575C215.52 136.645 215.859 136.721 216.2 136.802C216.2 136.802 219.966 133.681 230.297 127.952C236.615 124.448 238.179 110.615 238.179 110.615Z" fill="#CACACA"/>
<path d="M307.033 131.256C307.033 131.256 299.494 146.427 302.614 168.055C305.734 189.683 292.643 235.425 292.643 235.425L283.283 232.83C283.283 232.83 289.523 187.844 287.963 177.462C286.403 167.081 285.972 136.446 293.773 131.256C301.573 126.065 307.033 131.256 307.033 131.256Z" fill="#737373"/>
<path d="M216.749 139.21L213.47 234.993L207.23 239.318C207.23 239.318 198.26 134.206 202.94 134.206H212.463C213.026 134.206 213.584 134.33 214.105 134.569C214.626 134.808 215.099 135.159 215.497 135.601C215.896 136.043 216.212 136.567 216.428 137.145C216.643 137.722 216.754 138.341 216.754 138.967C216.754 139.048 216.753 139.129 216.749 139.21Z" fill="#626262"/>
<path d="M288.353 233.262C286.199 233.262 284.453 231.325 284.453 228.937C284.453 226.548 286.199 224.611 288.353 224.611C290.507 224.611 292.253 226.548 292.253 228.937C292.253 231.325 290.507 233.262 288.353 233.262Z" fill="#FF637A"/>
<path d="M210.35 237.588C208.196 237.588 206.45 235.651 206.45 233.262C206.45 230.873 208.196 228.937 210.35 228.937C212.504 228.937 214.25 230.873 214.25 233.262C214.25 235.651 212.504 237.588 210.35 237.588Z" fill="#FF637A"/>
<path d="M278.672 27.723V60.5975H271.807L263.071 50.216L264.241 60.5975H233.898L235.77 50.216L232.026 60.5975H227.19V27.723H278.672Z" fill="#302F38"/>
<path d="M283.352 66.6536C282.06 66.6536 281.012 64.5233 281.012 61.8955C281.012 59.2676 282.06 57.1373 283.352 57.1373C284.644 57.1373 285.692 59.2676 285.692 61.8955C285.692 64.5233 284.644 66.6536 283.352 66.6536Z" fill="#FFB8B8"/>
<path d="M223.29 66.6536C221.997 66.6536 220.95 64.5233 220.95 61.8955C220.95 59.2676 221.997 57.1373 223.29 57.1373C224.582 57.1373 225.63 59.2676 225.63 61.8955C225.63 64.5233 224.582 66.6536 223.29 66.6536Z" fill="#FFB8B8"/>
<path d="M158.367 290.483V293.381C158.365 294.176 158.498 294.965 158.758 295.706C158.874 296.036 159.014 296.355 159.176 296.66C159.689 297.616 160.417 298.406 161.288 298.955C162.16 299.504 163.145 299.793 164.148 299.792H356.37C357.372 299.793 358.358 299.504 359.229 298.955C360.101 298.406 360.829 297.616 361.342 296.66C361.504 296.355 361.644 296.036 361.759 295.706C362.02 294.965 362.153 294.176 362.151 293.381V290.483C362.151 289.641 362.002 288.807 361.712 288.03C361.422 287.252 360.996 286.545 360.459 285.95C359.923 285.354 359.286 284.882 358.585 284.56C357.884 284.237 357.132 284.071 356.373 284.071H345.29V282.72C345.29 282.685 345.284 282.65 345.272 282.618C345.26 282.585 345.242 282.556 345.22 282.531C345.197 282.506 345.171 282.486 345.142 282.473C345.113 282.46 345.081 282.453 345.05 282.453H339.268C339.204 282.452 339.143 282.48 339.098 282.53C339.052 282.58 339.027 282.648 339.027 282.719V284.071H335.415V282.72C335.415 282.685 335.409 282.65 335.397 282.618C335.385 282.585 335.367 282.556 335.345 282.531C335.323 282.506 335.296 282.486 335.267 282.473C335.238 282.46 335.207 282.453 335.175 282.453H329.393C329.329 282.452 329.268 282.48 329.223 282.53C329.178 282.58 329.152 282.648 329.152 282.719V284.071H325.536V282.72C325.536 282.685 325.53 282.65 325.518 282.618C325.506 282.585 325.488 282.556 325.466 282.531C325.444 282.506 325.417 282.486 325.388 282.473C325.359 282.46 325.327 282.453 325.296 282.453H319.514C319.45 282.452 319.389 282.48 319.344 282.53C319.298 282.58 319.273 282.648 319.273 282.719V284.071H315.661V282.72C315.661 282.685 315.655 282.65 315.643 282.618C315.631 282.585 315.613 282.556 315.591 282.531C315.569 282.506 315.542 282.486 315.513 282.473C315.484 282.46 315.453 282.453 315.421 282.453H309.639C309.575 282.452 309.514 282.48 309.469 282.53C309.424 282.58 309.398 282.648 309.398 282.719V284.071H305.787V282.72C305.787 282.685 305.78 282.65 305.768 282.618C305.756 282.585 305.739 282.556 305.716 282.531C305.694 282.506 305.668 282.486 305.638 282.473C305.609 282.46 305.578 282.453 305.546 282.453H299.764C299.701 282.452 299.639 282.48 299.594 282.53C299.549 282.58 299.523 282.648 299.523 282.719V284.071H295.908V282.72C295.908 282.685 295.901 282.65 295.889 282.618C295.877 282.585 295.86 282.556 295.837 282.531C295.815 282.506 295.788 282.486 295.759 282.473C295.73 282.46 295.699 282.453 295.667 282.453H289.885C289.822 282.452 289.76 282.48 289.715 282.53C289.67 282.58 289.644 282.648 289.644 282.719V284.071H286.033V282.72C286.033 282.685 286.027 282.65 286.015 282.618C286.003 282.585 285.985 282.556 285.963 282.531C285.94 282.506 285.914 282.487 285.885 282.473C285.855 282.46 285.824 282.453 285.792 282.453H240.507C240.476 282.453 240.444 282.459 240.415 282.473C240.386 282.486 240.359 282.506 240.337 282.53C240.314 282.555 240.297 282.585 240.285 282.617C240.272 282.649 240.266 282.684 240.266 282.719V284.071H236.65V282.72C236.65 282.685 236.644 282.65 236.632 282.618C236.62 282.585 236.602 282.556 236.58 282.531C236.558 282.506 236.531 282.487 236.502 282.473C236.473 282.46 236.442 282.453 236.41 282.453H230.628C230.564 282.453 230.503 282.482 230.458 282.532C230.413 282.582 230.388 282.649 230.387 282.72V284.071H226.775V282.72C226.775 282.685 226.769 282.65 226.757 282.618C226.745 282.585 226.728 282.556 226.705 282.531C226.683 282.506 226.656 282.487 226.627 282.473C226.598 282.46 226.567 282.453 226.535 282.453H220.753C220.722 282.453 220.69 282.459 220.661 282.473C220.632 282.486 220.605 282.506 220.583 282.53C220.561 282.555 220.543 282.585 220.531 282.617C220.519 282.649 220.512 282.684 220.512 282.719V284.071H216.901V282.72C216.901 282.685 216.895 282.65 216.883 282.618C216.87 282.585 216.853 282.556 216.83 282.531C216.808 282.506 216.782 282.487 216.752 282.473C216.723 282.46 216.692 282.453 216.66 282.453H210.879C210.847 282.453 210.816 282.459 210.786 282.473C210.757 282.486 210.731 282.506 210.708 282.53C210.686 282.555 210.668 282.585 210.656 282.617C210.644 282.649 210.638 282.684 210.637 282.719V284.071H207.022V282.72C207.022 282.685 207.015 282.65 207.003 282.618C206.991 282.585 206.974 282.556 206.951 282.531C206.929 282.506 206.903 282.487 206.873 282.473C206.844 282.46 206.813 282.453 206.781 282.453H200.999C200.936 282.453 200.876 282.482 200.831 282.532C200.787 282.582 200.762 282.65 200.763 282.72V284.071H197.147V282.72C197.147 282.685 197.141 282.65 197.129 282.618C197.117 282.585 197.099 282.556 197.077 282.531C197.054 282.506 197.028 282.487 196.999 282.473C196.969 282.46 196.938 282.453 196.907 282.453H191.125C191.093 282.453 191.062 282.459 191.033 282.473C191.003 282.486 190.977 282.506 190.954 282.53C190.932 282.555 190.914 282.585 190.902 282.617C190.89 282.649 190.884 282.684 190.884 282.719V284.071H187.272V282.72C187.272 282.685 187.266 282.65 187.254 282.618C187.242 282.585 187.224 282.556 187.202 282.531C187.18 282.506 187.153 282.487 187.124 282.473C187.095 282.46 187.063 282.453 187.032 282.453H181.25C181.218 282.453 181.187 282.459 181.158 282.473C181.129 282.486 181.102 282.506 181.08 282.53C181.057 282.555 181.039 282.585 181.027 282.617C181.015 282.649 181.009 282.684 181.009 282.719V284.071H164.148C162.615 284.071 161.145 284.745 160.06 285.947C158.976 287.149 158.367 288.779 158.367 290.479L158.367 290.483Z" fill="#535461"/>
<path d="M0 299.045H418V300H0V299.045Z" fill="#3F3D56"/>
<path d="M173.845 168.438H349.922C350.559 168.438 351.189 168.577 351.777 168.848C352.365 169.118 352.899 169.514 353.349 170.013C353.799 170.512 354.156 171.104 354.4 171.757C354.643 172.409 354.769 173.108 354.769 173.813V282.622C354.769 284.048 354.258 285.415 353.349 286.423C352.44 287.431 351.208 287.997 349.922 287.997H173.845C172.56 287.997 171.327 287.431 170.418 286.423C169.509 285.415 168.999 284.048 168.999 282.622V173.813C168.999 172.388 169.509 171.021 170.418 170.013C171.327 169.005 172.56 168.438 173.845 168.438Z" fill="#302F38"/>
<path d="M261.743 218.362C255.799 218.362 250.981 213.018 250.981 206.426C250.981 199.834 255.799 194.491 261.743 194.491C267.686 194.491 272.504 199.834 272.504 206.426C272.504 213.018 267.686 218.362 261.743 218.362Z" fill="#FF637A"/>
<path d="M195.123 127.575L140.796 66.8461H115.148V65.8913H141.156L141.282 66.0331L195.735 126.904L195.123 127.575Z" fill="#3F3D56"/>
<path d="M20.8773 41.9136H83.821V48.1343H20.8773V41.9136Z" fill="#FF637A"/>
<path d="M91.4923 52.0676H104.817V37.2889H91.4923V52.0676ZM103.956 51.1128H92.3532V38.2437H103.956L103.956 51.1128Z" fill="#3F3D56"/>
<path d="M20.8773 62.6491H83.821V68.8698H20.8773V62.6491Z" fill="#FF637A"/>
<path d="M91.4923 72.8031H104.817V58.0246H91.4923V72.8031ZM103.956 71.8483H92.3532V58.9794H103.956L103.956 71.8483Z" fill="#3F3D56"/>
<path d="M20.8773 83.3846H83.821V89.6053H20.8773V83.3846Z" fill="#FF637A"/>
<path d="M91.4923 93.5387H104.817V78.7602H91.4923V93.5387ZM103.956 92.5838H92.3532V79.715H103.956L103.956 92.5838Z" fill="#3F3D56"/>
</g>
<defs>
<clipPath id="clip0">
<rect width="418" height="300" fill="white" transform="matrix(-1 0 0 1 418 0)"/>
</clipPath>
</defs>
</svg>
